<svg
    aria-hidden="true"
    role="img"
    viewBox="0 0 448 512"
    class="icon-check-square"
    xmlns="http://www.w3.org/2000/svg"
>
    <path
        fill="currentColor"
        class="icon-square"
        d="M 400 32 H 48 C 21.49 32 0 53.49 0 80 v 352 c 0 26.51 21.49 48 48 48 h 352 c 26.51 0 48 -21.49 48 -48 V 80 c 0 -26.51 -21.49 -48 -48 -48 z m 0 400 H 48 V 80 h 352 v 352 z"
    ></path>
    <path
        fill="currentColor"
        class="icon-check"
        d="M 364.136 190.276 L 191.547 361.48 c -4.705 4.667 -12.303 4.637 -16.97 -0.068 l -90.781 -91.516 c -4.667 -4.705 -4.637 -12.303 0.069 -16.971 l 22.719 -22.536 c 4.705 -4.667 12.303 -4.637 16.97 0.069 l 59.792 60.277 l 141.352 -140.216 c 4.705 -4.667 12.303 -4.637 16.97 0.068 l 22.536 22.718 c 4.667 4.706 4.637 12.304 -0.068 16.971 z"
    ></path>
</svg>